<svg version="1.2" viewBox="0 0 167.99 82.947" xmlns="http://www.w3.org/2000/svg" xmlns:osb="http://www.openswatchbook.org/uri/2009/osb" xmlns:xlink="http://www.w3.org/1999/xlink">
 <g transform="translate(-41.492 -59.733)">
  <path id="Corpo" class="s1" d="m42 126 1-16s3.8-14.3 12-16l20-10h2s26.3-17 37-17c0 0 23.4-3.4 51-1 0 0 20.732-0.78605 38.529 11.667 0.15727 0.11004 0.3143 0.22111 0.47109 0.33323 0 0 2.2 5 2 9l1 6s5.1 8.5-1 19l-3 1s-0.52322 7.8113-4.9 9.7c-3.6339-3e-3 -11.786 0.9985-13.225-3.6219l-50.875 11.922-3-2s-2.3389 11.728-10.039 12.428c0 0-10.361 3.4722-16.961-4.4278 0 0-9.5 6.7-40.3-1.9 0 0-20.7-7.2-21.7-9.1z" style="fill:#0079a2;stroke:#000"/>
 </g>
</svg>
