<?xml version="1.0" encoding="UTF-8" standalone="no"?>
<svg
   xmlns:osb="http://www.openswatchbook.org/uri/2009/osb"
   xmlns:dc="http://purl.org/dc/elements/1.1/"
   xmlns:cc="http://creativecommons.org/ns#"
   xmlns:rdf="http://www.w3.org/1999/02/22-rdf-syntax-ns#"
   xmlns:svg="http://www.w3.org/2000/svg"
   xmlns="http://www.w3.org/2000/svg"
   xmlns:xlink="http://www.w3.org/1999/xlink"
   id="svg3821"
   height="82.947311"
   width="167.98869"
   viewBox="0 0 167.98869 82.947311"
   version="1.2">
  <metadata
     id="metadata3825">
    <rdf:RDF>
      <cc:Work
         rdf:about="">
        <dc:format>image/svg+xml</dc:format>
        <dc:type
           rdf:resource="http://purl.org/dc/dcmitype/StillImage" />
        <dc:title>image</dc:title>
      </cc:Work>
    </rdf:RDF>
  </metadata>
  <title
     id="title3789">image</title>
  <defs
     id="defs3797">
    <linearGradient
       id="linearGradient6304-3">
      <stop
         id="stop6300"
         offset="0"
         style="stop-color:#000000;stop-opacity:1;" />
      <stop
         id="stop6302"
         offset="1"
         style="stop-color:#000000;stop-opacity:0;" />
    </linearGradient>
    <linearGradient
       osb:paint="gradient"
       gradientUnits="userSpaceOnUse"
       y2="127.5"
       x2="130.10001"
       y1="127.5"
       x1="110"
       id="g1">
      <stop
         id="stop3792"
         stop-color="#000000"
         offset="0" />
      <stop
         id="stop3794"
         stop-color="#ffffff"
         offset="1" />
    </linearGradient>
    <linearGradient
       gradientUnits="userSpaceOnUse"
       y2="135.05856"
       x2="119.55791"
       y1="144.46968"
       x1="101.40415"
       id="linearGradient6306"
       xlink:href="#linearGradient6304-3" />
  </defs>
  <style
     id="style3799">
		.s0 { fill: #000000;stroke: #000000 } 
		.s1 { fill: none;stroke: #000000 } 
		.s2 { fill: #ffffff;stroke: url(#g1) } 
	</style>
  <use
     transform="translate(-41.492226,-59.733468)"
     height="100%"
     width="100%"
     y="0"
     x="0"
     href="#img1"
     id="Background" />
  <g
     transform="translate(-41.492226,-59.733468)"
     style="display:inline;opacity:1"
     id="layer2">
    <g
       id="Traçado">
      <path
         style=";stroke:#000000"
         d="m 49,99 c 0,0 2.4,-5.1 8,-6 0,0 -6.7,3.6 -8,6 z"
         class="s0"
         id="Forma 1" />
      <path
         style=";stroke:#000000"
         d="m 76,112 c 0,0 6,-15.2 32,-13 0,0 2.1,1.9 0,3 l -11,8 c 0,0 -2.2,0.5 -4.5,0.8 C 90.1,111.1 76,112 76,112 Z"
         class="s1"
         id="Forma 2" />
      <path
         style=";stroke:#000000"
         d="M 110.7,68.1 C 118,70 147.4,70.5 145,71 q -0.3,0.1 -0.8,0.4 C 139.6,73.9 120.6,88.3 120.6,88.3 83.8,90.7 76.9,84 76.9,84 97.9,71.1 110.7,68.1 110.7,68.1 Z"
         class="s1"
         id="Forma 3" />
      <path
         style=";stroke:#000000"
         d="M 140.05524,91.232019 C 140.05524,91.232019 138.5,86 143,85 c 0,0 9.4,0 9,4 0,0 -0.2,4.6 -8.9,3.4 z"
         class="s1"
         id="Forma 4" />
      <path
         style=";stroke:#000000"
         d="m 44,124 c 0,0 16.2,11.9 42.8,8.4"
         class="s1"
         id="Forma 8" />
      <path
         id="path6662"
         d="M 140.16667,91.166346 C 136.21157,91.870675 123.47414,95.036472 123,95 v 0 c 0,0 32.1,-44.6 70,-19 l -0.5,5.8 c 0,0 -21.2991,4.332841 -40.71345,8.080796"
         style=";stroke:#000000" />
      <path
         style=";stroke:#000000"
         d="m 98.666666,98.894444 c 0,0 18.844444,-6.922222 19.644444,-10.322222"
         class="s1"
         id="Forma 7" />
      <path
         style=";stroke:#000000"
         d="m 51.494444,96.727778 c 0,0 8.771552,7.204992 31.760441,7.327222"
         class="s1"
         id="Forma 6" />
    </g>
    <g
       id="Preenchido" />
    <path
       style=";stroke:#000000"
       d="m 42,126 1,-16 c 0,0 3.8,-14.3 12,-16 L 75,84 h 2 c 0,0 26.3,-17 37,-17 0,0 23.4,-3.4 51,-1 0,0 20.73198,-0.786047 38.52891,11.666768 0.15727,0.11004 0.3143,0.221114 0.47109,0.333232 0,0 2.2,5 2,9 l 1,6 c 0,0 5.1,8.5 -1,19 l -3,1 c 0,0 -0.52322,7.81126 -4.9,9.7 -3.63388,-0.003 -11.78636,0.9985 -13.225,-3.62188 L 134,131 l -3,-2 c 0,0 -2.33889,11.72778 -10.03889,12.42778 0,0 -10.36111,3.47222 -16.96111,-4.42778 0,0 -9.5,6.7 -40.3,-1.9 0,0 -20.7,-7.2 -21.7,-9.1 z"
       class="s1"
       id="Corpo" />
  </g>
  <g
     transform="translate(-41.492226,-59.733468)"
     id="g6715"
     style="display:inline;opacity:1">
    <g
       id="g6703">
      <path
         id="path6683"
         class="s0"
         d="m 49,99 c 0,0 2.4,-5.1 8,-6 0,0 -6.7,3.6 -8,6 z"
         style="fill:#000000;stroke:#000000" />
      <path
         id="path6685"
         d="m 76,112 c 0,0 6,-15.2 32,-13 0,0 2.1,1.9 0,3 l -11,8 c 0,0 -2.2,0.5 -4.5,0.8 C 90.1,111.1 76,112 76,112 Z"
         style="fill:#737373;fill-opacity:1;stroke:#000000" />
      <path
         id="path6687"
         class="s1"
         d="M 110.7,68.1 C 118,70 147.4,70.5 145,71 q -0.3,0.1 -0.8,0.4 C 139.6,73.9 120.6,88.3 120.6,88.3 83.8,90.7 76.9,84 76.9,84 97.9,71.1 110.7,68.1 110.7,68.1 Z"
         style="fill:#393939;fill-opacity:1;stroke:#000000" />
      <path
         id="path6689"
         class="s1"
         d="M 140.05524,91.232019 C 140.05524,91.232019 138.5,86 143,85 c 0,0 9.4,0 9,4 0,0 -0.2,4.6 -8.9,3.4 z"
         style="fill:#000" />
      <path
         id="path6691"
         class="s1"
         d="m 44,124 c 0,0 16.2,11.9 42.8,8.4"
         style="fill:none;stroke:#000000" />
      <path
         style="fill:#393939;fill-opacity:1;stroke:#000000"
         d="M 151.78655,89.880796 C 171.2009,86.132841 192.5,81.8 192.5,81.8 L 193,76 C 155.1,50.4 123,95 123,95 v 0 c 0.47414,0.03647 13.21157,-3.129325 17.16667,-3.833654 0,0 -1.57374,-4.969762 2.77939,-6.118811 0,0 4.88345,-0.795495 8.24221,2.651651 0.83968,1.590991 0.59828,2.18161 0.59828,2.18161 z"
         id="path6693" />
      <path
         id="path6695"
         class="s1"
         d="m 98.666666,98.894444 c 0,0 18.844444,-6.922222 19.644444,-10.322222"
         style="fill:none;stroke:#000000" />
      <path
         id="path6697"
         class="s1"
         d="m 51.494444,96.727778 c 0,0 8.771552,7.204992 31.760441,7.327222"
         style="fill:none;stroke:#000000" />
      <path
         id="path6699"
         class="s1"
         d="M 206,88 C 199.6,83.7 203.08839,77.676777 203.08839,77.676777 205.31049,77.28501 206,88 206,88 Z"
         style="fill:#aa0000;stroke:#000000" />
      <path
         id="path6701"
         class="s1"
         d="M 203.78001,112.65997 C 205.98001,96.059966 199.375,98.25 199.375,98.25 c -10.3856,2.81831 -8.61089,19.63794 -8.61089,19.63794 l -5.49067,1.08081 c 0,0 2.27834,3.66751 10.32491,3.43528 0,0 4.73169,0.8619 7.52665,-9.46653 z"
         style="fill:#000000;fill-opacity:1;stroke:#000000" />
    </g>
    <ellipse
       ry="2.6100583"
       rx="2.4850583"
       cy="103.57414"
       cx="90.282372"
       id="path6735"
       style="opacity:1;fill:#d7d7d7;fill-opacity:1;stroke:none;stroke-width:0.61964852;stroke-opacity:1" />
    <g
       id="g6707"
       style="fill:url(#linearGradient6306);fill-opacity:1">
      <path
         id="path6705"
         class="s0"
         d="m 109.87002,115.6725 c 3.3,-8.5 18.17442,-6.92806 18.17442,-6.92806 3.96164,1.85929 6.16433,4.34793 5.63594,11.24869 -0.54191,7.07729 -0.34148,10.46243 -0.34148,10.46243 L 131,129 c -3.4,10.1 -10,12 -10,12 -12.5,3.4 -16.32998,-4.0275 -16.32998,-4.0275 -2,-10.2 5.2,-21.3 5.2,-21.3 z"
         style="fill:#000000;fill-opacity:1;stroke:#000000" />
    </g>
    <path
       style="fill:#000000;stroke:#000000"
       id="path6709"
       class="s0"
       d="M 164.29289,65.883883 168,60" />
    <path
       style="fill:#000000;fill-opacity:1;stroke:#000000;stroke-width:1px;stroke-linecap:butt;stroke-linejoin:miter;stroke-opacity:1"
       d="m 142.84315,92.633769 c 0,0 -4.77297,8.529471 -5.21491,0.176776 l 1.94455,-1.370019 c 0,0 1.59098,0.707107 3.27036,1.193243 z"
       id="path6713" />
    <ellipse
       ry="4.5163083"
       rx="4.8600583"
       cy="105.09704"
       cx="95.771873"
       id="path6735-3"
       style="display:inline;opacity:1;fill:#d7d7d7;fill-opacity:1;stroke:none;stroke-width:1.13989425;stroke-opacity:1" />
  </g>
  <g
     id="layer5">
    <path
       id="path6685-0"
       d="m 34.572134,52.23139 c 0,0 6,-15.200005 31.999995,-13.000005 0,0 2.1,1.900005 0,3.000005 l -10.999995,8 c 0,0 -2.2,0.5 -4.5,0.8 -2.4,0.3 -16.5,1.2 -16.5,1.2 z"
       style="display:inline;opacity:1;fill:none;fill-opacity:1;stroke:#000000" />
  </g>
</svg>
